<mxfile host="65bd71144e">
    <diagram id="IruLZ8o7gVBgFbqPmEnk" name="Some_example1">
        <mxGraphModel dx="951" dy="579" grid="1" gridSize="10" guides="1" tooltips="1" connect="1" arrows="1" fold="1" page="1" pageScale="1" pageWidth="827" pageHeight="750" background="none" math="0" shadow="0">
            <root>
                <mxCell id="0"/>
                <mxCell id="1" parent="0"/>
                <mxCell id="166" value="1_o" style="ellipse;whiteSpace=wrap;html=1;aspect=fixed;fillColor=#FFFFFF;fontColor=#FF0000;strokeColor=#FF0000;fontSize=14;fontStyle=0;strokeWidth=1;" vertex="1" parent="1">
                    <mxGeometry x="258" y="150" width="30" height="30" as="geometry"/>
                </mxCell>
                <mxCell id="167" value="4_i" style="ellipse;whiteSpace=wrap;html=1;aspect=fixed;fillColor=#FFFFFF;strokeColor=#FF0000;fontColor=#FF0000;fontSize=14;fontStyle=0;strokeWidth=1;" vertex="1" parent="1">
                    <mxGeometry x="608" y="150" width="30" height="30" as="geometry"/>
                </mxCell>
                <mxCell id="168" value="3_i" style="ellipse;whiteSpace=wrap;html=1;aspect=fixed;strokeColor=#000000;fillColor=#FFFFFF;fontColor=#000000;fontStyle=0;fontSize=14;strokeWidth=1;" vertex="1" parent="1">
                    <mxGeometry x="388" y="190" width="30" height="30" as="geometry"/>
                </mxCell>
                <mxCell id="169" style="edgeStyle=none;html=1;entryX=0;entryY=0.5;entryDx=0;entryDy=0;" edge="1" parent="1" source="166" target="168">
                    <mxGeometry relative="1" as="geometry">
                        <mxPoint x="338" y="225" as="targetPoint"/>
                    </mxGeometry>
                </mxCell>
                <mxCell id="170" value="1" style="edgeLabel;html=1;align=center;verticalAlign=middle;resizable=0;points=[];fontSize=16;" vertex="1" connectable="0" parent="169">
                    <mxGeometry x="-0.0595" y="-2" relative="1" as="geometry">
                        <mxPoint as="offset"/>
                    </mxGeometry>
                </mxCell>
                <mxCell id="171" style="edgeStyle=none;html=1;" edge="1" parent="1" source="175" target="167">
                    <mxGeometry relative="1" as="geometry"/>
                </mxCell>
                <mxCell id="172" value="1" style="edgeLabel;html=1;align=center;verticalAlign=middle;resizable=0;points=[];fontSize=16;" vertex="1" connectable="0" parent="171">
                    <mxGeometry x="-0.1495" y="1" relative="1" as="geometry">
                        <mxPoint as="offset"/>
                    </mxGeometry>
                </mxCell>
                <mxCell id="173" style="edgeStyle=none;html=1;entryX=0.5;entryY=0;entryDx=0;entryDy=0;fontSize=16;" edge="1" parent="1" source="175" target="166">
                    <mxGeometry relative="1" as="geometry">
                        <Array as="points">
                            <mxPoint x="388" y="60"/>
                        </Array>
                    </mxGeometry>
                </mxCell>
                <mxCell id="174" value="1" style="edgeLabel;html=1;align=center;verticalAlign=middle;resizable=0;points=[];fontSize=16;" vertex="1" connectable="0" parent="173">
                    <mxGeometry x="0.0578" y="5" relative="1" as="geometry">
                        <mxPoint as="offset"/>
                    </mxGeometry>
                </mxCell>
                <mxCell id="175" value="2_o" style="ellipse;whiteSpace=wrap;html=1;aspect=fixed;strokeColor=#000000;fillColor=#FFFFFF;fontColor=#000000;fontStyle=0;fontSize=14;strokeWidth=1;" vertex="1" parent="1">
                    <mxGeometry x="498" y="90" width="30" height="30" as="geometry"/>
                </mxCell>
                <mxCell id="176" style="edgeStyle=none;html=1;entryX=1;entryY=1;entryDx=0;entryDy=0;" edge="1" parent="1" source="180" target="166">
                    <mxGeometry relative="1" as="geometry">
                        <Array as="points">
                            <mxPoint x="388" y="260"/>
                        </Array>
                        <mxPoint x="300" y="190" as="targetPoint"/>
                    </mxGeometry>
                </mxCell>
                <mxCell id="177" value="1" style="edgeLabel;html=1;align=center;verticalAlign=middle;resizable=0;points=[];fontSize=16;" vertex="1" connectable="0" parent="176">
                    <mxGeometry x="0.1606" relative="1" as="geometry">
                        <mxPoint as="offset"/>
                    </mxGeometry>
                </mxCell>
                <mxCell id="178" style="edgeStyle=none;html=1;entryX=0;entryY=1;entryDx=0;entryDy=0;" edge="1" parent="1" source="180" target="167">
                    <mxGeometry relative="1" as="geometry"/>
                </mxCell>
                <mxCell id="179" value="1" style="edgeLabel;html=1;align=center;verticalAlign=middle;resizable=0;points=[];fontSize=16;" vertex="1" connectable="0" parent="178">
                    <mxGeometry x="-0.0874" y="-1" relative="1" as="geometry">
                        <mxPoint as="offset"/>
                    </mxGeometry>
                </mxCell>
                <mxCell id="180" value="3_o" style="ellipse;whiteSpace=wrap;html=1;aspect=fixed;strokeColor=#000000;fillColor=#FFFFFF;fontColor=#000000;fontStyle=0;fontSize=14;strokeWidth=1;" vertex="1" parent="1">
                    <mxGeometry x="498" y="190" width="30" height="30" as="geometry"/>
                </mxCell>
                <mxCell id="181" style="edgeStyle=none;html=1;entryX=0;entryY=0.5;entryDx=0;entryDy=0;" edge="1" parent="1" source="168" target="180">
                    <mxGeometry relative="1" as="geometry"/>
                </mxCell>
                <mxCell id="182" value="1" style="edgeLabel;html=1;align=center;verticalAlign=middle;resizable=0;points=[];fontSize=16;" vertex="1" connectable="0" parent="181">
                    <mxGeometry x="-0.3548" y="2" relative="1" as="geometry">
                        <mxPoint y="1" as="offset"/>
                    </mxGeometry>
                </mxCell>
                <mxCell id="183" value="1" style="edgeStyle=none;html=1;entryX=0;entryY=0.5;entryDx=0;entryDy=0;fontSize=16;" edge="1" parent="1" source="186" target="166">
                    <mxGeometry relative="1" as="geometry">
                        <Array as="points"/>
                    </mxGeometry>
                </mxCell>
                <mxCell id="184" style="edgeStyle=none;html=1;entryX=1;entryY=0.5;entryDx=0;entryDy=0;fontSize=16;exitX=0;exitY=1;exitDx=0;exitDy=0;" edge="1" parent="1" source="166" target="188">
                    <mxGeometry relative="1" as="geometry">
                        <Array as="points">
                            <mxPoint x="218" y="220"/>
                        </Array>
                    </mxGeometry>
                </mxCell>
                <mxCell id="185" value="1" style="edgeLabel;html=1;align=center;verticalAlign=middle;resizable=0;points=[];fontSize=16;" vertex="1" connectable="0" parent="184">
                    <mxGeometry x="-0.1563" y="2" relative="1" as="geometry">
                        <mxPoint as="offset"/>
                    </mxGeometry>
                </mxCell>
                <mxCell id="186" value="1_i" style="ellipse;whiteSpace=wrap;html=1;aspect=fixed;fillColor=#FFFFFF;strokeColor=#FF0000;fontColor=#FF0000;fontSize=14;fontStyle=0;strokeWidth=1;" vertex="1" parent="1">
                    <mxGeometry x="168" y="150" width="30" height="30" as="geometry"/>
                </mxCell>
                <mxCell id="187" value="1" style="edgeStyle=none;html=1;entryX=0;entryY=1;entryDx=0;entryDy=0;fontSize=16;" edge="1" parent="1" source="188" target="186">
                    <mxGeometry relative="1" as="geometry">
                        <Array as="points"/>
                    </mxGeometry>
                </mxCell>
                <mxCell id="188" value="&lt;span style=&quot;font-size: 14px;&quot;&gt;&lt;font style=&quot;font-size: 14px;&quot;&gt;t&lt;/font&gt;&lt;/span&gt;" style="ellipse;whiteSpace=wrap;html=1;aspect=fixed;fillColor=#FFFFFF;fontColor=#000000;strokeColor=#000000;strokeWidth=1;fontSize=14;fontStyle=0" vertex="1" parent="1">
                    <mxGeometry x="98" y="190" width="30" height="30" as="geometry"/>
                </mxCell>
                <mxCell id="189" value="" style="edgeStyle=none;html=1;fontSize=16;entryX=1;entryY=0.5;entryDx=0;entryDy=0;" edge="1" parent="1" source="193" target="180">
                    <mxGeometry relative="1" as="geometry">
                        <Array as="points">
                            <mxPoint x="688" y="180"/>
                            <mxPoint x="618" y="210"/>
                        </Array>
                    </mxGeometry>
                </mxCell>
                <mxCell id="190" value="1" style="edgeLabel;html=1;align=center;verticalAlign=middle;resizable=0;points=[];fontSize=16;" vertex="1" connectable="0" parent="189">
                    <mxGeometry x="-0.4946" y="-1" relative="1" as="geometry">
                        <mxPoint as="offset"/>
                    </mxGeometry>
                </mxCell>
                <mxCell id="191" style="edgeStyle=none;html=1;entryX=1;entryY=0.5;entryDx=0;entryDy=0;fontSize=16;" edge="1" parent="1" source="193" target="175">
                    <mxGeometry relative="1" as="geometry">
                        <Array as="points">
                            <mxPoint x="638" y="110"/>
                        </Array>
                    </mxGeometry>
                </mxCell>
                <mxCell id="192" value="1" style="edgeLabel;html=1;align=center;verticalAlign=middle;resizable=0;points=[];fontSize=16;" vertex="1" connectable="0" parent="191">
                    <mxGeometry x="-0.2779" y="-2" relative="1" as="geometry">
                        <mxPoint as="offset"/>
                    </mxGeometry>
                </mxCell>
                <mxCell id="193" value="4_o" style="ellipse;whiteSpace=wrap;html=1;aspect=fixed;fillColor=#FFFFFF;strokeColor=#FF0000;fontColor=#FF0000;fontSize=14;fontStyle=0;strokeWidth=1;" vertex="1" parent="1">
                    <mxGeometry x="728" y="150" width="30" height="30" as="geometry"/>
                </mxCell>
                <mxCell id="194" style="edgeStyle=none;html=1;fontSize=16;entryX=0;entryY=0.5;entryDx=0;entryDy=0;" edge="1" parent="1" source="167" target="193">
                    <mxGeometry relative="1" as="geometry">
                        <mxPoint x="732" y="160" as="targetPoint"/>
                        <Array as="points"/>
                    </mxGeometry>
                </mxCell>
                <mxCell id="195" value="2" style="edgeLabel;html=1;align=center;verticalAlign=middle;resizable=0;points=[];fontSize=16;" vertex="1" connectable="0" parent="194">
                    <mxGeometry x="-0.4284" y="-3" relative="1" as="geometry">
                        <mxPoint as="offset"/>
                    </mxGeometry>
                </mxCell>
                <mxCell id="196" style="edgeStyle=none;html=1;entryX=0;entryY=0;entryDx=0;entryDy=0;fontSize=16;" edge="1" parent="1" source="198" target="186">
                    <mxGeometry relative="1" as="geometry">
                        <Array as="points"/>
                    </mxGeometry>
                </mxCell>
                <mxCell id="197" value="1" style="edgeLabel;html=1;align=center;verticalAlign=middle;resizable=0;points=[];fontSize=16;" vertex="1" connectable="0" parent="196">
                    <mxGeometry x="-0.2721" y="1" relative="1" as="geometry">
                        <mxPoint as="offset"/>
                    </mxGeometry>
                </mxCell>
                <mxCell id="198" value="&lt;span style=&quot;font-size: 14px;&quot;&gt;&lt;font style=&quot;font-size: 14px;&quot;&gt;s&lt;/font&gt;&lt;/span&gt;" style="ellipse;whiteSpace=wrap;html=1;aspect=fixed;fillColor=#FFFFFF;fontColor=#000000;strokeColor=#000000;strokeWidth=1;fontSize=14;fontStyle=0" vertex="1" parent="1">
                    <mxGeometry x="98" y="110" width="30" height="30" as="geometry"/>
                </mxCell>
                <mxCell id="199" value="1" style="edgeStyle=none;html=1;fontSize=16;entryX=1;entryY=0.5;entryDx=0;entryDy=0;" edge="1" parent="1" source="166" target="198">
                    <mxGeometry relative="1" as="geometry">
                        <Array as="points">
                            <mxPoint x="228" y="130"/>
                        </Array>
                    </mxGeometry>
                </mxCell>
                <mxCell id="200" value="2_i" style="ellipse;whiteSpace=wrap;html=1;aspect=fixed;strokeColor=#000000;fillColor=#FFFFFF;fontColor=#000000;fontStyle=0;fontSize=14;strokeWidth=1;" vertex="1" parent="1">
                    <mxGeometry x="388" y="90" width="30" height="30" as="geometry"/>
                </mxCell>
                <mxCell id="201" style="edgeStyle=none;html=1;" edge="1" parent="1" source="166" target="200">
                    <mxGeometry relative="1" as="geometry">
                        <Array as="points"/>
                    </mxGeometry>
                </mxCell>
                <mxCell id="202" value="1" style="edgeLabel;html=1;align=center;verticalAlign=middle;resizable=0;points=[];fontSize=16;" vertex="1" connectable="0" parent="201">
                    <mxGeometry x="0.1073" y="-1" relative="1" as="geometry">
                        <mxPoint as="offset"/>
                    </mxGeometry>
                </mxCell>
                <mxCell id="203" style="edgeStyle=none;html=1;entryX=0;entryY=0.5;entryDx=0;entryDy=0;" edge="1" parent="1" source="200" target="175">
                    <mxGeometry relative="1" as="geometry">
                        <mxPoint x="500" y="150" as="targetPoint"/>
                    </mxGeometry>
                </mxCell>
                <mxCell id="204" value="1" style="edgeLabel;html=1;align=center;verticalAlign=middle;resizable=0;points=[];fontSize=16;" vertex="1" connectable="0" parent="203">
                    <mxGeometry x="-0.0519" y="-2" relative="1" as="geometry">
                        <mxPoint as="offset"/>
                    </mxGeometry>
                </mxCell>
                <mxCell id="205" style="edgeStyle=none;html=1;entryX=1;entryY=1;entryDx=0;entryDy=0;fontSize=16;" edge="1" parent="1" source="209" target="188">
                    <mxGeometry relative="1" as="geometry"/>
                </mxCell>
                <mxCell id="206" value="1" style="edgeLabel;html=1;align=center;verticalAlign=middle;resizable=0;points=[];fontSize=16;" vertex="1" connectable="0" parent="205">
                    <mxGeometry x="0.2089" y="2" relative="1" as="geometry">
                        <mxPoint as="offset"/>
                    </mxGeometry>
                </mxCell>
                <mxCell id="207" style="edgeStyle=none;html=1;entryX=0;entryY=1;entryDx=0;entryDy=0;fontSize=16;" edge="1" parent="1" source="209" target="198">
                    <mxGeometry relative="1" as="geometry">
                        <Array as="points">
                            <mxPoint x="68" y="250"/>
                        </Array>
                    </mxGeometry>
                </mxCell>
                <mxCell id="208" value="1" style="edgeLabel;html=1;align=center;verticalAlign=middle;resizable=0;points=[];fontSize=16;" vertex="1" connectable="0" parent="207">
                    <mxGeometry x="-0.138" relative="1" as="geometry">
                        <mxPoint y="1" as="offset"/>
                    </mxGeometry>
                </mxCell>
                <mxCell id="209" value="&lt;span&gt;s_p&lt;/span&gt;" style="ellipse;whiteSpace=wrap;html=1;aspect=fixed;fillColor=#FFFFFF;fontColor=#006600;strokeColor=#006600;strokeWidth=1;fontSize=14;fontStyle=0" vertex="1" parent="1">
                    <mxGeometry x="218" y="292" width="30" height="30" as="geometry"/>
                </mxCell>
                <mxCell id="210" value="&lt;span style=&quot;font-size: 14px;&quot;&gt;&lt;font style=&quot;font-size: 14px;&quot;&gt;t_p&lt;/font&gt;&lt;/span&gt;" style="ellipse;whiteSpace=wrap;html=1;aspect=fixed;fillColor=#FFFFFF;fontColor=#006600;strokeColor=#006600;strokeWidth=1;fontSize=14;fontStyle=0" vertex="1" parent="1">
                    <mxGeometry x="578" y="292" width="30" height="30" as="geometry"/>
                </mxCell>
                <mxCell id="211" style="edgeStyle=none;html=1;fontSize=16;exitX=0.5;exitY=1;exitDx=0;exitDy=0;entryX=0.5;entryY=0;entryDx=0;entryDy=0;" edge="1" parent="1" source="193" target="210">
                    <mxGeometry relative="1" as="geometry">
                        <Array as="points"/>
                        <mxPoint x="650" y="300" as="targetPoint"/>
                    </mxGeometry>
                </mxCell>
                <mxCell id="212" value="2" style="edgeLabel;html=1;align=center;verticalAlign=middle;resizable=0;points=[];fontSize=16;" vertex="1" connectable="0" parent="211">
                    <mxGeometry x="0.0388" y="2" relative="1" as="geometry">
                        <mxPoint as="offset"/>
                    </mxGeometry>
                </mxCell>
            </root>
        </mxGraphModel>
    </diagram>
    <diagram name="Some_example2" id="6DsexEv6bWD_B2Qi-iGh">
        <mxGraphModel dx="1110" dy="675" grid="1" gridSize="10" guides="1" tooltips="1" connect="1" arrows="1" fold="1" page="1" pageScale="1" pageWidth="827" pageHeight="750" background="none" math="0" shadow="0">
            <root>
                <mxCell id="GCLhzhi-DH_0EwoDnund-0"/>
                <mxCell id="GCLhzhi-DH_0EwoDnund-1" parent="GCLhzhi-DH_0EwoDnund-0"/>
                <mxCell id="GCLhzhi-DH_0EwoDnund-2" value="1_o" style="ellipse;whiteSpace=wrap;html=1;aspect=fixed;fillColor=#FFFFFF;fontColor=#FF0000;strokeColor=#FF0000;fontSize=14;fontStyle=0;strokeWidth=1;" vertex="1" parent="GCLhzhi-DH_0EwoDnund-1">
                    <mxGeometry x="258" y="490" width="30" height="30" as="geometry"/>
                </mxCell>
                <mxCell id="GCLhzhi-DH_0EwoDnund-3" value="4_i" style="ellipse;whiteSpace=wrap;html=1;aspect=fixed;fillColor=#FFFFFF;strokeColor=#FF0000;fontColor=#FF0000;fontSize=14;fontStyle=0;strokeWidth=1;" vertex="1" parent="GCLhzhi-DH_0EwoDnund-1">
                    <mxGeometry x="608" y="490" width="30" height="30" as="geometry"/>
                </mxCell>
                <mxCell id="GCLhzhi-DH_0EwoDnund-4" value="3_i" style="ellipse;whiteSpace=wrap;html=1;aspect=fixed;strokeColor=#000000;fillColor=#FFFFFF;fontColor=#000000;fontStyle=0;fontSize=14;strokeWidth=1;" vertex="1" parent="GCLhzhi-DH_0EwoDnund-1">
                    <mxGeometry x="388" y="530" width="30" height="30" as="geometry"/>
                </mxCell>
                <mxCell id="GCLhzhi-DH_0EwoDnund-5" style="edgeStyle=none;html=1;entryX=0;entryY=0.5;entryDx=0;entryDy=0;fontStyle=0" edge="1" parent="GCLhzhi-DH_0EwoDnund-1" source="GCLhzhi-DH_0EwoDnund-2" target="GCLhzhi-DH_0EwoDnund-4">
                    <mxGeometry relative="1" as="geometry">
                        <mxPoint x="338" y="565" as="targetPoint"/>
                    </mxGeometry>
                </mxCell>
                <mxCell id="GCLhzhi-DH_0EwoDnund-6" value="1" style="edgeLabel;html=1;align=center;verticalAlign=middle;resizable=0;points=[];fontSize=16;fontStyle=0" vertex="1" connectable="0" parent="GCLhzhi-DH_0EwoDnund-5">
                    <mxGeometry x="-0.0595" y="-2" relative="1" as="geometry">
                        <mxPoint as="offset"/>
                    </mxGeometry>
                </mxCell>
                <mxCell id="GCLhzhi-DH_0EwoDnund-7" style="edgeStyle=none;html=1;fontStyle=0" edge="1" parent="GCLhzhi-DH_0EwoDnund-1" source="GCLhzhi-DH_0EwoDnund-11" target="GCLhzhi-DH_0EwoDnund-3">
                    <mxGeometry relative="1" as="geometry"/>
                </mxCell>
                <mxCell id="GCLhzhi-DH_0EwoDnund-8" value="1" style="edgeLabel;html=1;align=center;verticalAlign=middle;resizable=0;points=[];fontSize=16;fontStyle=0" vertex="1" connectable="0" parent="GCLhzhi-DH_0EwoDnund-7">
                    <mxGeometry x="-0.1495" y="1" relative="1" as="geometry">
                        <mxPoint as="offset"/>
                    </mxGeometry>
                </mxCell>
                <mxCell id="GCLhzhi-DH_0EwoDnund-9" style="edgeStyle=none;html=1;entryX=0.5;entryY=0;entryDx=0;entryDy=0;fontSize=16;fontStyle=0" edge="1" parent="GCLhzhi-DH_0EwoDnund-1" source="GCLhzhi-DH_0EwoDnund-11" target="GCLhzhi-DH_0EwoDnund-2">
                    <mxGeometry relative="1" as="geometry">
                        <Array as="points">
                            <mxPoint x="388" y="400"/>
                        </Array>
                    </mxGeometry>
                </mxCell>
                <mxCell id="GCLhzhi-DH_0EwoDnund-10" value="1" style="edgeLabel;html=1;align=center;verticalAlign=middle;resizable=0;points=[];fontSize=16;fontStyle=0" vertex="1" connectable="0" parent="GCLhzhi-DH_0EwoDnund-9">
                    <mxGeometry x="0.0578" y="5" relative="1" as="geometry">
                        <mxPoint as="offset"/>
                    </mxGeometry>
                </mxCell>
                <mxCell id="GCLhzhi-DH_0EwoDnund-11" value="2_o" style="ellipse;whiteSpace=wrap;html=1;aspect=fixed;strokeColor=#000000;fillColor=#FFFFFF;fontColor=#000000;fontStyle=0;fontSize=14;strokeWidth=1;" vertex="1" parent="GCLhzhi-DH_0EwoDnund-1">
                    <mxGeometry x="498" y="430" width="30" height="30" as="geometry"/>
                </mxCell>
                <mxCell id="GCLhzhi-DH_0EwoDnund-12" style="edgeStyle=none;html=1;entryX=1;entryY=1;entryDx=0;entryDy=0;fontStyle=0" edge="1" parent="GCLhzhi-DH_0EwoDnund-1" source="GCLhzhi-DH_0EwoDnund-16" target="GCLhzhi-DH_0EwoDnund-2">
                    <mxGeometry relative="1" as="geometry">
                        <Array as="points">
                            <mxPoint x="388" y="600"/>
                        </Array>
                        <mxPoint x="300" y="530" as="targetPoint"/>
                    </mxGeometry>
                </mxCell>
                <mxCell id="GCLhzhi-DH_0EwoDnund-13" value="1" style="edgeLabel;html=1;align=center;verticalAlign=middle;resizable=0;points=[];fontSize=16;fontStyle=0" vertex="1" connectable="0" parent="GCLhzhi-DH_0EwoDnund-12">
                    <mxGeometry x="0.1606" relative="1" as="geometry">
                        <mxPoint as="offset"/>
                    </mxGeometry>
                </mxCell>
                <mxCell id="GCLhzhi-DH_0EwoDnund-14" style="edgeStyle=none;html=1;entryX=0;entryY=1;entryDx=0;entryDy=0;fontStyle=0" edge="1" parent="GCLhzhi-DH_0EwoDnund-1" source="GCLhzhi-DH_0EwoDnund-16" target="GCLhzhi-DH_0EwoDnund-3">
                    <mxGeometry relative="1" as="geometry"/>
                </mxCell>
                <mxCell id="GCLhzhi-DH_0EwoDnund-15" value="1" style="edgeLabel;html=1;align=center;verticalAlign=middle;resizable=0;points=[];fontSize=16;fontStyle=0" vertex="1" connectable="0" parent="GCLhzhi-DH_0EwoDnund-14">
                    <mxGeometry x="-0.0874" y="-1" relative="1" as="geometry">
                        <mxPoint as="offset"/>
                    </mxGeometry>
                </mxCell>
                <mxCell id="GCLhzhi-DH_0EwoDnund-16" value="3_o" style="ellipse;whiteSpace=wrap;html=1;aspect=fixed;strokeColor=#000000;fillColor=#FFFFFF;fontColor=#000000;fontStyle=0;fontSize=14;strokeWidth=1;" vertex="1" parent="GCLhzhi-DH_0EwoDnund-1">
                    <mxGeometry x="498" y="530" width="30" height="30" as="geometry"/>
                </mxCell>
                <mxCell id="GCLhzhi-DH_0EwoDnund-17" style="edgeStyle=none;html=1;entryX=0;entryY=0.5;entryDx=0;entryDy=0;fontStyle=0" edge="1" parent="GCLhzhi-DH_0EwoDnund-1" source="GCLhzhi-DH_0EwoDnund-4" target="GCLhzhi-DH_0EwoDnund-16">
                    <mxGeometry relative="1" as="geometry"/>
                </mxCell>
                <mxCell id="GCLhzhi-DH_0EwoDnund-18" value="1" style="edgeLabel;html=1;align=center;verticalAlign=middle;resizable=0;points=[];fontSize=16;fontStyle=0" vertex="1" connectable="0" parent="GCLhzhi-DH_0EwoDnund-17">
                    <mxGeometry x="-0.3548" y="2" relative="1" as="geometry">
                        <mxPoint y="1" as="offset"/>
                    </mxGeometry>
                </mxCell>
                <mxCell id="GCLhzhi-DH_0EwoDnund-19" value="2" style="edgeStyle=none;html=1;entryX=0;entryY=0.5;entryDx=0;entryDy=0;fontSize=16;fontStyle=0" edge="1" parent="GCLhzhi-DH_0EwoDnund-1" source="GCLhzhi-DH_0EwoDnund-22" target="GCLhzhi-DH_0EwoDnund-2">
                    <mxGeometry relative="1" as="geometry">
                        <Array as="points"/>
                    </mxGeometry>
                </mxCell>
                <mxCell id="GCLhzhi-DH_0EwoDnund-20" style="edgeStyle=none;html=1;entryX=1;entryY=0.5;entryDx=0;entryDy=0;fontSize=16;exitX=0;exitY=1;exitDx=0;exitDy=0;fontStyle=0" edge="1" parent="GCLhzhi-DH_0EwoDnund-1" source="GCLhzhi-DH_0EwoDnund-2" target="GCLhzhi-DH_0EwoDnund-24">
                    <mxGeometry relative="1" as="geometry">
                        <Array as="points">
                            <mxPoint x="218" y="560"/>
                        </Array>
                    </mxGeometry>
                </mxCell>
                <mxCell id="GCLhzhi-DH_0EwoDnund-21" value="1" style="edgeLabel;html=1;align=center;verticalAlign=middle;resizable=0;points=[];fontSize=16;fontStyle=0" vertex="1" connectable="0" parent="GCLhzhi-DH_0EwoDnund-20">
                    <mxGeometry x="-0.1563" y="2" relative="1" as="geometry">
                        <mxPoint as="offset"/>
                    </mxGeometry>
                </mxCell>
                <mxCell id="GCLhzhi-DH_0EwoDnund-22" value="1_i" style="ellipse;whiteSpace=wrap;html=1;aspect=fixed;fillColor=#FFFFFF;strokeColor=#FF0000;fontColor=#FF0000;fontSize=14;fontStyle=0;strokeWidth=1;" vertex="1" parent="GCLhzhi-DH_0EwoDnund-1">
                    <mxGeometry x="168" y="490" width="30" height="30" as="geometry"/>
                </mxCell>
                <mxCell id="GCLhzhi-DH_0EwoDnund-23" value="1" style="edgeStyle=none;html=1;entryX=0;entryY=1;entryDx=0;entryDy=0;fontSize=16;fontStyle=0" edge="1" parent="GCLhzhi-DH_0EwoDnund-1" source="GCLhzhi-DH_0EwoDnund-24" target="GCLhzhi-DH_0EwoDnund-22">
                    <mxGeometry relative="1" as="geometry">
                        <Array as="points"/>
                    </mxGeometry>
                </mxCell>
                <mxCell id="GCLhzhi-DH_0EwoDnund-24" value="&lt;span style=&quot;font-size: 14px;&quot;&gt;&lt;font style=&quot;font-size: 14px;&quot;&gt;t&lt;/font&gt;&lt;/span&gt;" style="ellipse;whiteSpace=wrap;html=1;aspect=fixed;fillColor=#FFFFFF;fontColor=#000000;strokeColor=#000000;strokeWidth=1;fontSize=14;fontStyle=0" vertex="1" parent="GCLhzhi-DH_0EwoDnund-1">
                    <mxGeometry x="98" y="530" width="30" height="30" as="geometry"/>
                </mxCell>
                <mxCell id="GCLhzhi-DH_0EwoDnund-25" value="" style="edgeStyle=none;html=1;fontSize=16;entryX=1;entryY=0.5;entryDx=0;entryDy=0;fontStyle=0" edge="1" parent="GCLhzhi-DH_0EwoDnund-1" source="GCLhzhi-DH_0EwoDnund-29" target="GCLhzhi-DH_0EwoDnund-16">
                    <mxGeometry relative="1" as="geometry">
                        <Array as="points">
                            <mxPoint x="688" y="520"/>
                            <mxPoint x="618" y="550"/>
                        </Array>
                    </mxGeometry>
                </mxCell>
                <mxCell id="GCLhzhi-DH_0EwoDnund-26" value="1" style="edgeLabel;html=1;align=center;verticalAlign=middle;resizable=0;points=[];fontSize=16;fontStyle=0" vertex="1" connectable="0" parent="GCLhzhi-DH_0EwoDnund-25">
                    <mxGeometry x="-0.4946" y="-1" relative="1" as="geometry">
                        <mxPoint as="offset"/>
                    </mxGeometry>
                </mxCell>
                <mxCell id="GCLhzhi-DH_0EwoDnund-27" style="edgeStyle=none;html=1;entryX=1;entryY=0.5;entryDx=0;entryDy=0;fontSize=16;fontStyle=0" edge="1" parent="GCLhzhi-DH_0EwoDnund-1" source="GCLhzhi-DH_0EwoDnund-29" target="GCLhzhi-DH_0EwoDnund-11">
                    <mxGeometry relative="1" as="geometry">
                        <Array as="points">
                            <mxPoint x="638" y="450"/>
                        </Array>
                    </mxGeometry>
                </mxCell>
                <mxCell id="GCLhzhi-DH_0EwoDnund-28" value="1" style="edgeLabel;html=1;align=center;verticalAlign=middle;resizable=0;points=[];fontSize=16;fontStyle=0" vertex="1" connectable="0" parent="GCLhzhi-DH_0EwoDnund-27">
                    <mxGeometry x="-0.2779" y="-2" relative="1" as="geometry">
                        <mxPoint as="offset"/>
                    </mxGeometry>
                </mxCell>
                <mxCell id="GCLhzhi-DH_0EwoDnund-29" value="4_o" style="ellipse;whiteSpace=wrap;html=1;aspect=fixed;fillColor=#FFFFFF;strokeColor=#FF0000;fontColor=#FF0000;fontSize=14;fontStyle=0;strokeWidth=1;" vertex="1" parent="GCLhzhi-DH_0EwoDnund-1">
                    <mxGeometry x="728" y="490" width="30" height="30" as="geometry"/>
                </mxCell>
                <mxCell id="GCLhzhi-DH_0EwoDnund-30" style="edgeStyle=none;html=1;fontSize=16;entryX=0;entryY=0.5;entryDx=0;entryDy=0;fontStyle=0" edge="1" parent="GCLhzhi-DH_0EwoDnund-1" source="GCLhzhi-DH_0EwoDnund-3" target="GCLhzhi-DH_0EwoDnund-29">
                    <mxGeometry relative="1" as="geometry">
                        <mxPoint x="732" y="500" as="targetPoint"/>
                        <Array as="points"/>
                    </mxGeometry>
                </mxCell>
                <mxCell id="GCLhzhi-DH_0EwoDnund-31" value="1" style="edgeLabel;html=1;align=center;verticalAlign=middle;resizable=0;points=[];fontSize=16;fontStyle=0" vertex="1" connectable="0" parent="GCLhzhi-DH_0EwoDnund-30">
                    <mxGeometry x="-0.4284" y="-3" relative="1" as="geometry">
                        <mxPoint as="offset"/>
                    </mxGeometry>
                </mxCell>
                <mxCell id="GCLhzhi-DH_0EwoDnund-32" style="edgeStyle=none;html=1;entryX=0;entryY=0;entryDx=0;entryDy=0;fontSize=16;fontStyle=0" edge="1" parent="GCLhzhi-DH_0EwoDnund-1" source="GCLhzhi-DH_0EwoDnund-34" target="GCLhzhi-DH_0EwoDnund-22">
                    <mxGeometry relative="1" as="geometry">
                        <Array as="points"/>
                    </mxGeometry>
                </mxCell>
                <mxCell id="GCLhzhi-DH_0EwoDnund-33" value="1" style="edgeLabel;html=1;align=center;verticalAlign=middle;resizable=0;points=[];fontSize=16;fontStyle=0" vertex="1" connectable="0" parent="GCLhzhi-DH_0EwoDnund-32">
                    <mxGeometry x="-0.2721" y="1" relative="1" as="geometry">
                        <mxPoint as="offset"/>
                    </mxGeometry>
                </mxCell>
                <mxCell id="GCLhzhi-DH_0EwoDnund-34" value="&lt;span style=&quot;font-size: 14px;&quot;&gt;&lt;font style=&quot;font-size: 14px;&quot;&gt;s&lt;/font&gt;&lt;/span&gt;" style="ellipse;whiteSpace=wrap;html=1;aspect=fixed;fillColor=#FFFFFF;fontColor=#000000;strokeColor=#000000;strokeWidth=1;fontSize=14;fontStyle=0" vertex="1" parent="GCLhzhi-DH_0EwoDnund-1">
                    <mxGeometry x="98" y="450" width="30" height="30" as="geometry"/>
                </mxCell>
                <mxCell id="GCLhzhi-DH_0EwoDnund-35" value="1" style="edgeStyle=none;html=1;fontSize=16;entryX=1;entryY=0.5;entryDx=0;entryDy=0;fontStyle=0" edge="1" parent="GCLhzhi-DH_0EwoDnund-1" source="GCLhzhi-DH_0EwoDnund-2" target="GCLhzhi-DH_0EwoDnund-34">
                    <mxGeometry relative="1" as="geometry">
                        <Array as="points">
                            <mxPoint x="228" y="470"/>
                        </Array>
                    </mxGeometry>
                </mxCell>
                <mxCell id="GCLhzhi-DH_0EwoDnund-36" value="2_i" style="ellipse;whiteSpace=wrap;html=1;aspect=fixed;strokeColor=#000000;fillColor=#FFFFFF;fontColor=#000000;fontStyle=0;fontSize=14;strokeWidth=1;" vertex="1" parent="GCLhzhi-DH_0EwoDnund-1">
                    <mxGeometry x="388" y="430" width="30" height="30" as="geometry"/>
                </mxCell>
                <mxCell id="GCLhzhi-DH_0EwoDnund-37" style="edgeStyle=none;html=1;fontStyle=0" edge="1" parent="GCLhzhi-DH_0EwoDnund-1" source="GCLhzhi-DH_0EwoDnund-2" target="GCLhzhi-DH_0EwoDnund-36">
                    <mxGeometry relative="1" as="geometry">
                        <Array as="points"/>
                    </mxGeometry>
                </mxCell>
                <mxCell id="GCLhzhi-DH_0EwoDnund-38" value="1" style="edgeLabel;html=1;align=center;verticalAlign=middle;resizable=0;points=[];fontSize=16;fontStyle=0" vertex="1" connectable="0" parent="GCLhzhi-DH_0EwoDnund-37">
                    <mxGeometry x="0.1073" y="-1" relative="1" as="geometry">
                        <mxPoint as="offset"/>
                    </mxGeometry>
                </mxCell>
                <mxCell id="GCLhzhi-DH_0EwoDnund-39" style="edgeStyle=none;html=1;entryX=0;entryY=0.5;entryDx=0;entryDy=0;fontStyle=0" edge="1" parent="GCLhzhi-DH_0EwoDnund-1" source="GCLhzhi-DH_0EwoDnund-36" target="GCLhzhi-DH_0EwoDnund-11">
                    <mxGeometry relative="1" as="geometry">
                        <mxPoint x="500" y="490" as="targetPoint"/>
                    </mxGeometry>
                </mxCell>
                <mxCell id="GCLhzhi-DH_0EwoDnund-40" value="1" style="edgeLabel;html=1;align=center;verticalAlign=middle;resizable=0;points=[];fontSize=16;fontStyle=0" vertex="1" connectable="0" parent="GCLhzhi-DH_0EwoDnund-39">
                    <mxGeometry x="-0.0519" y="-2" relative="1" as="geometry">
                        <mxPoint as="offset"/>
                    </mxGeometry>
                </mxCell>
                <mxCell id="GCLhzhi-DH_0EwoDnund-41" style="edgeStyle=none;html=1;entryX=1;entryY=1;entryDx=0;entryDy=0;fontSize=16;fontStyle=0" edge="1" parent="GCLhzhi-DH_0EwoDnund-1" source="GCLhzhi-DH_0EwoDnund-45" target="GCLhzhi-DH_0EwoDnund-24">
                    <mxGeometry relative="1" as="geometry"/>
                </mxCell>
                <mxCell id="GCLhzhi-DH_0EwoDnund-42" value="1" style="edgeLabel;html=1;align=center;verticalAlign=middle;resizable=0;points=[];fontSize=16;fontStyle=0" vertex="1" connectable="0" parent="GCLhzhi-DH_0EwoDnund-41">
                    <mxGeometry x="0.2089" y="2" relative="1" as="geometry">
                        <mxPoint as="offset"/>
                    </mxGeometry>
                </mxCell>
                <mxCell id="GCLhzhi-DH_0EwoDnund-43" style="edgeStyle=none;html=1;entryX=0;entryY=1;entryDx=0;entryDy=0;fontSize=16;fontStyle=0" edge="1" parent="GCLhzhi-DH_0EwoDnund-1" source="GCLhzhi-DH_0EwoDnund-45" target="GCLhzhi-DH_0EwoDnund-34">
                    <mxGeometry relative="1" as="geometry">
                        <Array as="points">
                            <mxPoint x="68" y="590"/>
                        </Array>
                    </mxGeometry>
                </mxCell>
                <mxCell id="GCLhzhi-DH_0EwoDnund-44" value="1" style="edgeLabel;html=1;align=center;verticalAlign=middle;resizable=0;points=[];fontSize=16;fontStyle=0" vertex="1" connectable="0" parent="GCLhzhi-DH_0EwoDnund-43">
                    <mxGeometry x="-0.138" relative="1" as="geometry">
                        <mxPoint y="1" as="offset"/>
                    </mxGeometry>
                </mxCell>
                <mxCell id="GCLhzhi-DH_0EwoDnund-45" value="&lt;span&gt;s_p&lt;/span&gt;" style="ellipse;whiteSpace=wrap;html=1;aspect=fixed;fillColor=#FFFFFF;fontColor=#006600;strokeColor=#006600;strokeWidth=1;fontSize=14;fontStyle=0" vertex="1" parent="GCLhzhi-DH_0EwoDnund-1">
                    <mxGeometry x="218" y="632" width="30" height="30" as="geometry"/>
                </mxCell>
                <mxCell id="GCLhzhi-DH_0EwoDnund-46" value="&lt;span style=&quot;font-size: 14px;&quot;&gt;&lt;font style=&quot;font-size: 14px;&quot;&gt;t_p&lt;/font&gt;&lt;/span&gt;" style="ellipse;whiteSpace=wrap;html=1;aspect=fixed;fillColor=#FFFFFF;fontColor=#006600;strokeColor=#006600;strokeWidth=1;fontSize=14;fontStyle=0" vertex="1" parent="GCLhzhi-DH_0EwoDnund-1">
                    <mxGeometry x="578" y="632" width="30" height="30" as="geometry"/>
                </mxCell>
                <mxCell id="GCLhzhi-DH_0EwoDnund-47" style="edgeStyle=none;html=1;entryX=0;entryY=0.5;entryDx=0;entryDy=0;fontSize=16;exitX=0.5;exitY=1;exitDx=0;exitDy=0;fontStyle=0" edge="1" parent="GCLhzhi-DH_0EwoDnund-1" source="GCLhzhi-DH_0EwoDnund-2" target="GCLhzhi-DH_0EwoDnund-46">
                    <mxGeometry relative="1" as="geometry">
                        <Array as="points">
                            <mxPoint x="390" y="645"/>
                        </Array>
                    </mxGeometry>
                </mxCell>
                <mxCell id="GCLhzhi-DH_0EwoDnund-48" value="2" style="edgeLabel;html=1;align=center;verticalAlign=middle;resizable=0;points=[];fontSize=16;fontStyle=0" vertex="1" connectable="0" parent="GCLhzhi-DH_0EwoDnund-47">
                    <mxGeometry x="0.0388" y="2" relative="1" as="geometry">
                        <mxPoint as="offset"/>
                    </mxGeometry>
                </mxCell>
            </root>
        </mxGraphModel>
    </diagram>
</mxfile>